<?xml version="1.0" encoding="utf-8"?>
<!-- Generator: Adobe Illustrator 16.0.0, SVG Export Plug-In . SVG Version: 6.00 Build 0)  -->
<!DOCTYPE svg PUBLIC "-//W3C//DTD SVG 1.1//EN" "http://www.w3.org/Graphics/SVG/1.1/DTD/svg11.dtd">
<svg version="1.1" id="图层_1" xmlns="http://www.w3.org/2000/svg" xmlns:xlink="http://www.w3.org/1999/xlink" x="0px" y="0px"
	 width="100px" height="100px" viewBox="0 0 100 100" enable-background="new 0 0 100 100" xml:space="preserve">
<g>
	<path d="M27.248,23.704l-5.079,18.307c-1.836,6.561-2.981,11.217-3.439,13.969c-0.46,2.751-0.688,5.502-0.688,8.253
		c0,2.752,0.281,6.015,0.847,9.788c0.563,3.776,0.847,6.334,0.847,7.673s-0.178,2.382-0.529,3.121
		c-0.354,0.742-1.519,1.112-3.492,1.112c-1.976,0-3.704-0.581-5.185-1.746c-1.481-1.165-2.223-2.733-2.223-4.71
		c0-0.563,0.069-1.163,0.211-1.798c1.199-6.419,1.8-10.812,1.8-13.175s-0.813-4.109-2.435-5.238
		c-1.624-1.128-3.915-2.046-6.878-2.752l0.318-2.01c2.044,0.212,4.055,0.317,6.031,0.317c1.974,0,3.633-0.529,4.974-1.588
		c1.339-1.059,2.645-3.245,3.915-6.561l8.995-23.916L27.248,23.704z M9.364,8.147c8.747,5.503,13.122,10.548,13.122,15.133
		c0,1.904-0.634,3.528-1.905,4.868c-1.269,1.34-2.787,2.01-4.55,2.01c-0.777,0-1.306-0.334-1.587-1.005
		c-0.282-0.67-0.46-1.78-0.529-3.334c-0.282-5.784-2.188-11.18-5.715-16.19L9.364,8.147z M79.946,72.169
		c1.13,2.683,2.486,5.203,4.075,7.566c1.586,2.362,2.628,3.545,3.119,3.545c0.495,0,0.953-0.3,1.378-0.899
		c0.423-0.598,1.287-2.382,2.593-5.345c1.304-2.962,2.556-6.205,3.757-9.734l2.01,0.528c-2.259,9.244-3.387,15.308-3.387,18.202
		c0,2.893,0.404,5.219,1.218,6.983c0.811,1.763,1.217,2.999,1.217,3.704c0,1.552-0.777,2.328-2.327,2.328
		c-1.555,0-4.356-1.729-8.413-5.187c-4.059-3.456-7.638-8.323-10.74-14.603c-5.647,6.42-14.816,12.874-27.515,19.366l-1.163-1.692
		C57.76,88.89,66.33,80.705,71.481,72.382c-3.247-10.229-5.079-25.996-5.502-47.303H38.89l-0.318,0.317
		c0,12.91-0.09,22.857-0.265,29.842c-0.178,6.984-0.831,12.787-1.958,17.408c-1.129,4.621-3.121,9.029-5.979,13.228
		c-2.857,4.195-7.144,8.904-12.857,14.126l-1.693-1.481c5.927-6.915,9.823-13.739,11.693-20.476
		c1.869-6.735,2.805-19.771,2.805-39.102c0-8.043-0.177-15.413-0.529-22.116c3.668,1.623,6.596,3.21,8.783,4.762h27.303
		c0-9.876-0.144-17.071-0.425-21.587c2.963,0.917,5.413,1.764,7.354,2.54c1.94,0.776,3.085,1.322,3.438,1.64
		c0.354,0.318,0.53,0.688,0.53,1.11c0,1.059-0.918,2.117-2.752,3.175l-0.423,13.122h11.852l3.386-5.079
		c0.563-0.776,1.059-1.164,1.481-1.164c0.425,0,1.975,1.288,4.657,3.862c2.68,2.576,4.021,4.198,4.021,4.868
		c0,0.671-0.673,1.005-2.011,1.005H73.491c-0.071,15.238,1.021,27.619,3.281,37.144c3.032-7.266,5.432-16.297,7.194-27.091
		c6.28,2.471,9.719,3.863,10.318,4.181s0.898,0.688,0.898,1.11c0,0.565-0.475,0.971-1.427,1.217
		c-0.952,0.249-1.658,0.777-2.117,1.588c-0.459,0.812-1.006,2.417-1.641,4.814C87.177,58.272,83.827,66.314,79.946,72.169z
		 M54.021,36.932l2.646-4.128c0.563-0.775,1.074-1.164,1.535-1.164c0.458,0,1.656,1.096,3.597,3.28
		c1.941,2.188,2.911,3.599,2.911,4.233s-0.706,0.952-2.116,0.952H45.661c-1.904,0-3.387,0.212-4.445,0.635l-1.903-4.339
		c1.481,0.354,3.244,0.53,5.291,0.53H54.021z M49.788,49.629h5.608l1.27-2.116c0.424-0.635,0.811-0.951,1.165-0.951
		c0.351,0,1.798,0.687,4.339,2.063c2.539,1.374,3.81,2.347,3.81,2.91c0,0.565-0.952,1.34-2.857,2.327v15.238
		c0,1.413,0.034,2.682,0.104,3.81l0.213,2.858c0,0.917-1.059,1.729-3.175,2.433c-2.117,0.706-3.387,1.058-3.811,1.058
		c-0.423,0-0.634-0.352-0.634-1.058v-4.762h-6.772v6.245c0,0.775-0.212,1.321-0.636,1.638c-0.423,0.318-1.307,0.654-2.645,1.007
		c-1.341,0.352-2.541,0.528-3.598,0.528c-0.424,0-0.636-0.283-0.636-0.847l0.105-3.703c0.07-1.129,0.106-2.328,0.106-3.6v-19.47
		c0-2.963-0.106-5.961-0.317-8.995C44.885,47.372,47.672,48.501,49.788,49.629z M55.82,70.37V52.805h-6.772V70.37H55.82z
		 M77.724,4.127c3.669,1.059,6.438,2.205,8.308,3.438c1.867,1.235,2.804,2.523,2.804,3.863c0,1.341-0.46,2.751-1.375,4.233
		c-0.918,1.48-1.729,2.222-2.434,2.222c-0.708,0-1.235-0.247-1.587-0.741c-0.355-0.493-0.653-1.323-0.899-2.486
		c-0.249-1.164-0.918-2.646-2.012-4.444c-1.094-1.8-2.274-3.263-3.545-4.393L77.724,4.127z"/>
</g>
</svg>
