<?xml version="1.0" encoding="utf-8"?>
<!-- Generator: Adobe Illustrator 16.0.0, SVG Export Plug-In . SVG Version: 6.00 Build 0)  -->
<!DOCTYPE svg PUBLIC "-//W3C//DTD SVG 1.1//EN" "http://www.w3.org/Graphics/SVG/1.1/DTD/svg11.dtd">
<svg version="1.1" id="图层_1" xmlns="http://www.w3.org/2000/svg" xmlns:xlink="http://www.w3.org/1999/xlink" x="0px" y="0px"
	 width="100px" height="100px" viewBox="0 0 100 100" enable-background="new 0 0 100 100" xml:space="preserve">
<g>
	<path d="M17.368,29.63H6.313c-1.751,0-3.259,0.176-4.522,0.527L0,25.839c1.473,0.355,3.225,0.527,5.264,0.527h12.104V12.579
		c0-4.069-0.073-7.859-0.21-11.367c4.069,0.84,7.191,1.576,9.367,2.21c2.176,0.629,3.264,1.229,3.264,1.786
		c0,0.703-1.229,1.546-3.684,2.527v18.631h4.42L34.102,21c0.424-0.702,0.929-1.054,1.529-1.054c0.595,0,2.279,1.298,5.05,3.894
		c2.771,2.6,4.159,4.21,4.159,4.844c0,0.629-0.668,0.946-2,0.946H26.105v16.841l16.524-5.576l0.947,2.313l-17.471,9.264V84.89
		c0,2.878-0.266,4.896-0.792,6.056c-0.527,1.157-2.085,2.348-4.681,3.577c-2.6,1.229-4.283,1.841-5.054,1.841
		c-0.561,0-0.912-0.561-1.053-1.683c-0.352-2.669-1.229-4.651-2.63-5.945c-1.405-1.302-4.21-2.651-8.42-4.056l0.419-2.21
		c5.752,1.404,9.299,2.107,10.631,2.107s2.141-0.21,2.424-0.634c0.278-0.42,0.42-1.157,0.42-2.211V57.209
		c-4.21,2.316-7.405,4.385-9.581,6.21c-0.561,0.492-0.981,0.736-1.259,0.736c-0.283,0-0.844-0.736-1.688-2.21
		C4,60.473,2.63,57.91,0.737,54.262c5.474-1.264,11.016-2.879,16.631-4.844V29.63z M57.157,15.419
		c8.21-2.737,17.051-6.875,26.524-12.421c1.679,1.474,3.486,3.319,5.422,5.529c1.928,2.21,2.896,3.628,2.896,4.262
		c0,0.63-0.248,0.947-0.736,0.947c-0.497,0-1.199-0.142-2.107-0.42c-0.916-0.278-1.722-0.42-2.424-0.42
		c-0.703,0-2.073,0.279-4.104,0.84c-9.195,2.527-17.65,4.107-25.368,4.737c-0.142,6.806-0.352,13.299-0.63,19.475h26.212
		l4.626-6.737c0.488-0.703,1.02-1.054,1.585-1.054c0.908,0,2.964,1.491,6.15,4.472c3.195,2.985,4.797,4.792,4.797,5.422
		c0,0.634-0.668,0.946-2.005,0.946h-18.1v42.419c0,3.439,0.034,5.825,0.103,7.161l0.104,3.894c0,0.488-0.369,0.98-1.105,1.474
		c-0.736,0.488-2.018,1.088-3.842,1.79c-1.824,0.698-3.088,1.054-3.791,1.054c-0.488,0-0.736-0.458-0.736-1.371v-56.42H56.523
		l-0.63,12.317c-0.702,11.929-3.212,20.928-7.53,26.996c-4.313,6.069-10.438,11.984-18.366,17.736l-1.473-2.103
		c3.649-3.298,6.84-6.896,9.577-10.789c2.737-3.894,4.861-8.472,6.369-13.736c1.507-5.263,2.437-12.262,2.788-20.999
		c0.351-8.738,0.51-15.578,0.476-20.524c-0.034-4.951-0.193-11.213-0.476-18.79C50.557,12.228,53.854,13.667,57.157,15.419z"/>
</g>
</svg>
