<?xml version="1.0" encoding="utf-8"?>
<!-- Generator: Adobe Illustrator 16.0.0, SVG Export Plug-In . SVG Version: 6.00 Build 0)  -->
<!DOCTYPE svg PUBLIC "-//W3C//DTD SVG 1.1//EN" "http://www.w3.org/Graphics/SVG/1.1/DTD/svg11.dtd">
<svg version="1.1" id="图层_1" xmlns="http://www.w3.org/2000/svg" xmlns:xlink="http://www.w3.org/1999/xlink" x="0px" y="0px"
	 width="100px" height="100px" viewBox="0 0 100 100" enable-background="new 0 0 100 100" xml:space="preserve">
<g>
	<path d="M16.332,38.674c-4.215,6.604-9.099,12.82-14.647,18.652L0,56.164C10.256,40.642,18.086,22.444,23.497,1.58
		c8.781,2.95,13.172,5.201,13.172,6.745c0,0.703-0.596,1.157-1.792,1.367c-1.827,0.356-3.756,2.427-5.793,6.218l-7.165,13.386
		c3.722,1.124,5.583,2.037,5.583,2.74s-0.879,1.616-2.633,2.74V92.52c0,1.055-0.197,1.758-0.583,2.109
		c-0.386,0.348-1.685,0.999-3.897,1.947c-2.213,0.952-3.512,1.423-3.898,1.423c-0.386,0-0.579-0.527-0.579-1.582l0.21-5.793
		c0.137-4.004,0.21-8.292,0.21-12.854V38.674z M48.787,9.38h25.606l2.74-3.795c0.563-0.771,1.248-1.158,2.059-1.158
		c0.807,0,1.805,0.563,3.002,1.686c1.191,1.123,2.439,2.127,3.738,3.001c1.299,0.88,1.951,1.724,1.951,2.53
		c0,0.811-1.265,1.917-3.795,3.318v18.021c0,1.407,0.056,2.774,0.158,4.108c0.107,1.338,0.159,2.127,0.159,2.371
		c0,0.248-0.09,0.476-0.262,0.686c-0.176,0.21-0.862,0.669-2.058,1.368c-1.192,0.703-2.389,1.179-3.58,1.424
		c-1.197,0.248-2.003,0.368-2.424,0.368c-0.424,0-0.634-0.527-0.634-1.577v-4.43h-9.485v14.017h15.492l4.108-5.689
		c0.634-0.845,1.32-1.266,2.058-1.266s2.667,1.458,5.793,4.374s4.69,4.652,4.69,5.214c0,0.566-0.493,0.845-1.475,0.845H70.178
		c3.023,7.097,6.553,12.435,10.592,16.02c4.039,3.58,10.449,6.705,19.23,9.377l-0.21,2.529c-3.233-0.141-5.797,0.069-7.692,0.631
		s-3.478,1.754-4.742,3.584c-0.352,0.563-0.703,0.841-1.055,0.841c-1.124,0-4.074-2.705-8.85-8.112
		c-4.777-5.411-8.221-13.699-10.326-24.869h-1.162v28.239c0,3.233,0.035,5.514,0.107,6.852l0.104,3.688
		c0,0.562-0.104,0.948-0.313,1.158s-0.896,0.651-2.058,1.316c-1.158,0.669-2.367,1.23-3.632,1.689
		c-1.265,0.454-2.11,0.682-2.53,0.682c-0.424,0-0.635-0.352-0.635-1.051l0.211-6.007c0.072-2.462,0.107-5.235,0.107-8.327V63.333
		c-3.654,6.672-7.586,12.134-11.801,16.384c-4.219,4.249-10.05,8.622-17.494,13.12l-1.475-1.475
		c11.941-10.677,20.303-22.867,25.08-36.566H35.091c-1.899,0-3.375,0.249-4.429,0.737l-1.896-4.742
		c1.475,0.352,3.229,0.527,5.27,0.527h23.288V37.302h-9.905v3.164c0,0.982-0.21,1.702-0.635,2.157
		c-0.42,0.459-1.543,1.093-3.37,1.899c-1.827,0.806-3.233,1.209-4.215,1.209c-0.42,0-0.562-0.596-0.42-1.788
		c0.279-2.319,0.42-4.811,0.42-7.482V13.17c0-2.95-0.107-5.935-0.317-8.957C42.676,5.761,45.978,7.48,48.787,9.38z M75.448,33.932
		V12.646H47.419v21.285H75.448z"/>
</g>
</svg>
