<?xml version="1.0" encoding="utf-8"?>
<!-- Generator: Adobe Illustrator 16.0.0, SVG Export Plug-In . SVG Version: 6.00 Build 0)  -->
<!DOCTYPE svg PUBLIC "-//W3C//DTD SVG 1.1//EN" "http://www.w3.org/Graphics/SVG/1.1/DTD/svg11.dtd">
<svg version="1.1" id="图层_1" xmlns="http://www.w3.org/2000/svg" xmlns:xlink="http://www.w3.org/1999/xlink" x="0px" y="0px"
	 width="100px" height="100px" viewBox="0 0 100 100" enable-background="new 0 0 100 100" xml:space="preserve">
<g>
	<path d="M28.948,66.989c1.444,0.938,3.104,2.202,4.98,3.787c1.876,1.59,2.994,2.616,3.355,3.088
		c0.361,0.471,0.542,0.973,0.542,1.515c0,0.541-0.401,0.811-1.193,0.811l-1.079-0.106c-0.723,0-1.59,0.344-2.599,1.026
		c-1.013,0.687-3.104,2.4-6.279,5.14c-3.175,2.743-6.729,5.323-10.657,7.741c-3.937,2.413-8.75,4.813-14.448,7.195l-1.193-1.625
		C11.923,86.974,21.444,77.453,28.948,66.989z M55.683,65.475v23.917c0,3.391-1.858,6.007-5.575,7.848
		C46.392,99.08,44.03,100,43.018,100c-0.576,0-0.902-0.507-0.973-1.515c-0.291-2.96-1.172-5.052-2.651-6.28
		c-1.479-1.224-4.708-2.633-9.688-4.219v-2.272c5.196,1.154,8.769,1.731,10.715,1.731c1.95,0,3.285-0.216,4.007-0.647
		c0.718-0.437,1.084-1.264,1.084-2.493v-18.83H7.52c-1.946,0-3.462,0.256-4.545,0.758l-1.946-4.761
		c1.515,0.361,3.316,0.542,5.412,0.542h76.083l4.329-5.412c0.793-0.938,1.585-1.41,2.378-1.41s2.726,1.3,5.791,3.898
		c3.064,2.598,4.602,4.311,4.602,5.143c0,0.828-0.757,1.242-2.276,1.242H55.683z M34.471,10.714H8.818
		c-1.946,0-3.461,0.251-4.545,0.757L2.327,6.817c1.515,0.361,3.316,0.542,5.412,0.542H79.6l4.329-5.844
		C84.721,0.506,85.642,0,86.689,0c1.044,0,3.228,1.458,6.549,4.382c3.315,2.924,4.976,4.708,4.976,5.359
		c0,0.647-0.757,0.973-2.272,0.973H64.557v10.499h12.013l2.599-3.792c0.356-0.502,0.74-0.758,1.136-0.758
		c0.396,0,2.22,0.978,5.466,2.924c3.245,1.946,4.87,3.263,4.87,3.95s-1.409,1.678-4.224,2.977v9.631c0,1.013,0.036,1.986,0.11,2.924
		l0.216,2.272c0,0.506-0.361,0.991-1.083,1.462c-0.723,0.467-1.841,0.938-3.355,1.405c-1.516,0.471-2.814,0.705-3.894,0.705
		c-1.083,0-1.625-0.396-1.625-1.193v-2.272H23.214v2.167c0,1.154-1.316,2.162-3.95,3.03c-2.633,0.867-4.421,1.299-5.358,1.299
		c-0.577,0-0.828-0.432-0.758-1.299c0.291-2.669,0.436-5.302,0.436-7.9V24.89c0-3.03-0.109-6.095-0.325-9.2
		c5.482,1.806,9.38,3.646,11.688,5.522h9.525V10.714z M71.052,50.647l3.677-4.545c0.723-0.867,1.409-1.299,2.057-1.299
		s2.546,1.176,5.681,3.519c3.141,2.343,4.708,3.897,4.708,4.654c0,0.758-0.793,1.137-2.378,1.137H20.727
		c-1.951,0-3.466,0.251-4.55,0.758l-1.946-4.766c1.515,0.366,3.32,0.542,5.412,0.542H71.052z M34.471,37.876V24.564H23.214v13.313
		H34.471z M55.357,10.714H43.56v10.499h11.798V10.714z M55.357,37.876V24.564H43.56v13.313H55.357z M61.633,69.698
		c8.512,2.668,14.972,5.028,19.371,7.085c4.404,2.057,7.434,4.078,9.094,6.064c1.66,1.981,2.488,4.091,2.488,6.328
		s-0.577,4.166-1.73,5.791c-1.154,1.625-2.272,2.435-3.355,2.435c-1.084,0-2.202-1.206-3.355-3.624
		c-1.154-2.417-3.933-5.844-8.332-10.282C71.408,79.056,66.397,75,60.77,71.318L61.633,69.698z M64.557,24.564v13.313h12.229V24.564
		H64.557z"/>
</g>
</svg>
