<?xml version="1.0" encoding="utf-8"?>
<!-- Generator: Adobe Illustrator 16.0.0, SVG Export Plug-In . SVG Version: 6.00 Build 0)  -->
<!DOCTYPE svg PUBLIC "-//W3C//DTD SVG 1.1//EN" "http://www.w3.org/Graphics/SVG/1.1/DTD/svg11.dtd">
<svg version="1.1" id="图层_1" xmlns="http://www.w3.org/2000/svg" xmlns:xlink="http://www.w3.org/1999/xlink" x="0px" y="0px"
	 width="100px" height="100px" viewBox="0 0 100 100" enable-background="new 0 0 100 100" xml:space="preserve">
<g>
	<path d="M21.861,34.584h-9.294c-2.888,8.095-6.44,15.029-10.664,20.8L0,54.859c4.575-11.051,7.395-24.533,8.447-40.444
		c1.125,0.211,3.098,0.723,5.916,1.53c2.814,0.812,4.469,1.357,4.963,1.637c0.489,0.283,0.739,0.636,0.739,1.057
		c0,0.422-0.336,0.773-1.006,1.058c-0.67,0.279-1.302,0.863-1.899,1.74c-0.597,0.881-1.091,2.023-1.478,3.433
		s-1.074,3.626-2.059,6.651h8.237V10.613c0-3.025-0.107-5.981-0.318-8.868c8.589,2.109,12.882,3.694,12.882,4.752
		c0,0.773-1.337,1.688-4.014,2.745v22.278h2.956l2.961-4.752c0.559-0.911,1.177-1.371,1.848-1.371c0.666,0,2.337,1.108,5.014,3.326
		c2.673,2.217,4.014,3.712,4.014,4.485c0,0.92-0.916,1.375-2.746,1.375H30.411v17.315l13.835-5.595l0.843,2.11L30.411,57.18v36.749
		c0,0.7-0.369,1.319-1.108,1.848s-2.023,1.178-3.854,1.951c-1.831,0.777-2.957,1.164-3.378,1.164c-0.425,0-0.636-0.318-0.636-0.949
		l0.211-4.963c0.142-3.45,0.215-6.548,0.215-9.294V62.354c-6.549,4.013-10.316,6.513-11.301,7.497
		c-0.988,0.988-1.688,1.478-2.113,1.478c-0.421,0-0.95-0.382-1.581-1.16c-0.637-0.772-2.535-3.626-5.702-8.554
		c6.544-1.616,13.444-3.695,20.697-6.23V34.584z M57.974,39.654V22.231H44.668c-1.688,0-3.167,0.279-4.435,0.842l-2.114-4.435
		c1.479,0.353,3.24,0.529,5.281,0.529h14.573v-8.237c0-4.224-0.107-7.532-0.317-9.925c4.434,0.773,7.69,1.547,9.767,2.32
		c2.075,0.777,3.114,1.375,3.114,1.796c0,0.567-1.16,1.409-3.484,2.535v11.511h8.236l3.803-5.491c0.7-1.058,1.388-1.586,2.059-1.586
		c0.67,0,1.637,0.46,2.904,1.375s2.707,2.023,4.331,3.326c1.615,1.302,2.707,2.233,3.27,2.797c0.563,0.567,0.847,1.022,0.847,1.375
		c0,0.842-0.988,1.268-2.956,1.268H67.053v17.423h16.791l4.014-5.599c0.7-0.984,1.422-1.479,2.161-1.479s2.591,1.409,5.547,4.224
		c2.956,2.818,4.435,4.508,4.435,5.07c0,0.632-1.126,0.949-3.382,0.949H40.444c-1.899,0-3.378,0.249-4.435,0.739l-1.903-4.435
		c1.482,0.353,3.239,0.529,5.28,0.529H57.974z M80.149,56.23h4.009l3.171-4.542c0.563-0.842,1.229-1.268,2.006-1.268
		c0.773,0,2.569,1.289,5.384,3.854c2.814,2.573,4.224,4.172,4.224,4.808c0,0.353-0.632,0.524-1.899,0.524H80.149v28.091
		c0,2.179-0.37,3.923-1.109,5.226c-0.738,1.302-2.466,2.642-5.177,4.013c-2.711,1.375-4.559,2.058-5.543,2.058
		c-0.632,0-1.022-0.528-1.16-1.581c-0.283-2.677-1.182-4.593-2.694-5.757c-1.512-1.16-4.876-2.479-10.083-3.958l0.528-2.006
		c6.122,0.773,10.101,1.16,11.932,1.16c1.83,0,2.956-0.211,3.377-0.632c0.425-0.426,0.636-1.164,0.636-2.217V59.607H43.508
		c-1.762,0-3.274,0.181-4.542,0.528l-1.796-4.434c1.479,0.353,3.239,0.528,5.28,0.528h28.405c0-7.248-0.073-11.472-0.211-12.671
		c7.881,1.057,11.824,2.007,11.824,2.849c0,0.494-0.772,1.199-2.319,2.114V56.23z M45.304,62.039
		c4.361,2.394,7.618,4.559,9.766,6.492c2.145,1.938,3.219,3.928,3.219,5.968c0,2.041-0.791,3.786-2.376,5.226
		c-1.581,1.443-2.888,2.165-3.906,2.165c-1.022,0-1.653-0.211-1.898-0.632c-0.249-0.425-0.442-1.903-0.58-4.438
		c-0.142-2.53-0.619-4.854-1.427-6.969c-0.812-2.109-2.058-4.292-3.751-6.544L45.304,62.039z"/>
</g>
</svg>
